<?xml version="1.0" standalone="no"?>
<!DOCTYPE svg PUBLIC "-//W3C//DTD SVG 20010904//EN"
 "http://www.w3.org/TR/2001/REC-SVG-20010904/DTD/svg10.dtd">
<svg version="1.0" xmlns="http://www.w3.org/2000/svg"
 width="860.000000pt" height="860.000000pt" viewBox="0 0 860.000000 860.000000"
 preserveAspectRatio="xMidYMid meet">
<metadata>
Created by potrace 1.11, written by Peter Selinger 2001-2013
</metadata>
<g transform="translate(0.000000,860.000000) scale(0.100000,-0.100000)"
fill="#000000" stroke="none">
<path d="M5435 7324 c-55 -7 -122 -18 -150 -24 -27 -6 -68 -14 -90 -19 -58
-11 -370 -165 -435 -214 -66 -50 -145 -104 -180 -122 -39 -21 -140 -125 -140
-143 0 -13 -36 -43 -43 -36 -3 3 -14 3 -25 0 -17 -6 -19 -13 -15 -46 4 -31 2
-40 -9 -40 -9 0 -21 -15 -29 -32 -7 -18 -23 -48 -35 -67 -13 -19 -20 -39 -17
-44 3 -5 1 -12 -4 -16 -13 -9 -53 -80 -53 -95 0 -14 -62 -46 -90 -46 -11 0
-34 -9 -52 -20 -35 -21 -53 -26 -43 -11 3 5 -2 16 -11 25 -8 9 -13 20 -9 25 3
5 -4 25 -15 43 -11 18 -32 58 -47 88 -33 65 -51 87 -77 91 -11 2 -29 24 -43
50 -15 31 -34 52 -55 62 -18 9 -49 32 -67 51 -19 20 -39 36 -44 36 -4 0 -23
11 -40 24 -18 13 -43 27 -56 31 -13 4 -58 31 -100 59 -42 29 -83 56 -91 59 -8
4 -33 18 -55 32 -22 14 -50 30 -62 35 -30 12 -83 64 -83 80 0 10 -39 12 -187
7 -252 -8 -311 -20 -628 -132 -188 -66 -238 -86 -250 -100 -5 -6 -50 -37 -99
-69 -93 -61 -186 -142 -186 -161 0 -6 -10 -21 -23 -32 -43 -39 -97 -101 -97
-112 0 -6 -4 -11 -10 -11 -5 0 -28 -33 -52 -72 -23 -40 -46 -74 -50 -76 -5 -2
-8 -9 -8 -17 0 -7 -11 -32 -24 -56 -23 -41 -58 -143 -70 -199 -3 -16 -16 -30
-33 -37 l-28 -11 25 -1 25 -1 -25 -20 c-20 -16 -22 -20 -7 -20 20 0 20 -1 6
-37 -12 -27 -28 -99 -32 -138 -1 -11 -6 -23 -10 -26 -13 -9 -26 -144 -30 -299
-3 -136 11 -263 46 -430 9 -41 23 -109 32 -150 8 -41 24 -109 36 -150 12 -41
29 -109 39 -150 9 -42 22 -84 27 -95 14 -26 55 -141 83 -230 12 -38 29 -88 39
-110 10 -22 42 -101 71 -175 29 -74 56 -137 60 -140 12 -8 43 -64 144 -254 20
-38 36 -77 36 -86 0 -10 7 -23 15 -30 8 -7 15 -17 15 -22 0 -5 9 -22 21 -36
25 -33 179 -282 179 -291 0 -3 10 -17 23 -31 21 -23 49 -62 72 -99 20 -33 155
-187 248 -285 20 -21 37 -45 37 -53 0 -7 6 -13 13 -13 6 0 23 -17 37 -37 14
-21 31 -44 38 -53 7 -8 38 -46 70 -85 32 -38 67 -81 78 -94 10 -13 24 -28 29
-35 6 -6 28 -34 50 -61 22 -28 52 -63 67 -80 15 -16 28 -36 28 -42 0 -7 5 -13
10 -13 10 0 58 -40 126 -105 46 -45 195 -179 223 -201 25 -20 94 -83 221 -203
41 -39 78 -71 83 -71 4 0 7 -6 7 -13 0 -19 220 -137 257 -137 18 0 63 -48 63
-68 0 -11 8 -43 17 -71 13 -42 23 -55 48 -65 34 -14 121 -20 139 -8 12 7 21 9
75 17 34 4 47 12 92 53 15 13 42 31 60 40 19 9 40 29 47 44 7 15 20 29 30 32
10 3 25 21 35 38 23 41 64 88 100 111 15 9 27 22 27 28 0 6 21 31 48 55 73 68
74 68 135 133 31 33 57 64 57 69 0 5 18 14 41 21 22 7 48 21 57 32 9 10 21 19
27 19 6 0 15 10 20 22 6 14 18 22 29 21 10 -1 31 12 45 28 28 30 115 89 131
89 6 0 10 5 10 10 0 6 7 10 15 10 8 0 15 5 15 11 0 15 44 56 70 64 11 3 20 15
20 26 0 11 7 19 16 19 11 0 14 6 9 20 -3 11 -2 20 3 20 5 0 17 18 27 40 10 22
21 40 25 40 4 0 18 10 32 23 13 12 43 35 66 51 23 16 42 34 42 40 1 6 25 29
55 50 30 22 55 45 55 52 0 7 8 15 18 18 9 4 27 22 39 41 13 19 33 37 46 40 14
4 34 26 51 56 15 27 36 55 47 62 10 6 19 17 19 23 0 7 20 33 45 59 24 26 47
56 50 66 3 10 15 21 26 24 10 4 19 12 19 18 1 20 33 52 76 76 23 13 47 35 54
49 6 15 20 32 31 40 11 7 42 43 70 80 28 37 59 70 69 74 11 4 26 21 36 39 9
18 27 44 40 58 13 14 24 31 24 38 0 7 16 27 35 46 19 19 35 38 35 43 0 5 19
35 43 66 23 32 55 83 71 115 16 32 37 67 47 78 10 11 32 47 49 80 17 33 37 67
44 75 20 24 103 192 110 223 4 16 22 61 40 100 18 40 41 97 51 127 9 30 21 63
26 72 5 10 6 24 3 32 -3 8 -1 17 5 21 6 3 11 13 11 21 0 9 13 34 29 57 40 59
71 131 71 164 0 16 5 34 11 40 7 7 8 19 4 30 -10 21 -9 39 6 116 7 31 16 57
22 57 5 0 7 12 4 27 -3 14 4 67 15 117 11 50 21 105 22 121 2 17 4 32 5 35 4
11 12 130 16 245 3 66 5 125 6 130 3 53 -5 262 -11 270 -4 6 -10 30 -14 55 -6
44 -13 80 -16 90 -1 3 -2 9 -1 14 1 4 -3 14 -9 21 -6 8 -10 19 -9 27 2 7 -2
23 -9 35 -7 12 -9 29 -6 37 3 9 2 16 -4 16 -6 0 -20 30 -32 68 -52 158 -190
371 -334 513 -232 230 -250 245 -343 288 -48 23 -101 49 -118 57 -197 103
-264 128 -375 140 -36 3 -85 13 -110 20 -58 18 -300 17 -435 -2z"/>
<path d="M1396 6005 c-11 -8 -17 -17 -14 -20 2 -3 13 4 23 15 21 23 18 25 -9
5z"/>
</g>
</svg>
